<?xml version="1.0" standalone="no"?><svg xmlns="http://www.w3.org/2000/svg" viewBox="0 0 1440 320"><path fill="#c4170c" fill-opacity="1" d="M0,96L40,106.7C80,117,160,139,240,170.7C320,203,400,245,480,224C560,203,640,117,720,112C800,107,880,181,960,176C1040,171,1120,85,1200,74.7C1280,64,1360,128,1400,160L1440,192L1440,320L1400,320C1360,320,1280,320,1200,320C1120,320,1040,320,960,320C880,320,800,320,720,320C640,320,560,320,480,320C400,320,320,320,240,320C160,320,80,320,40,320L0,320Z"></path></svg>